<svg width="25" height="21" viewBox="0 0 25 21" fill="none" xmlns="http://www.w3.org/2000/svg">
<path d="M24.6172 10.5002C24.6172 10.7054 24.5358 10.9021 24.3907 11.0471C24.2457 11.1922 24.0489 11.2737 23.8438 11.2737H3.02415L10.9841 19.2349C11.0601 19.3057 11.1211 19.3911 11.1633 19.486C11.2056 19.5809 11.2283 19.6833 11.2302 19.7871C11.232 19.891 11.2129 19.9941 11.174 20.0904C11.1351 20.1868 11.0772 20.2742 11.0037 20.3477C10.9303 20.4211 10.8428 20.479 10.7465 20.5179C10.6502 20.5568 10.5471 20.5759 10.4432 20.5741C10.3394 20.5723 10.2369 20.5495 10.1421 20.5073C10.0472 20.465 9.9618 20.404 9.89099 20.3281L0.609739 11.0468C0.4649 10.9018 0.383545 10.7052 0.383545 10.5002C0.383545 10.2953 0.4649 10.0987 0.609739 9.95368L9.89099 0.672426C10.0376 0.535806 10.2315 0.461429 10.4319 0.464964C10.6323 0.4685 10.8235 0.549671 10.9652 0.691378C11.1069 0.833085 11.188 1.02426 11.1916 1.22464C11.1951 1.42501 11.1207 1.61893 10.9841 1.76555L3.02415 9.7268H23.8438C24.0489 9.7268 24.2457 9.80829 24.3907 9.95334C24.5358 10.0984 24.6172 10.2951 24.6172 10.5002Z" fill="black"/>
</svg>
